<svg id="mabinogi" width="65" height="65" xmlns="http://www.w3.org/2000/svg">

 <g>
  <title>Layer 1</title>
  <polygon id="svg_1" points="18.6 47.86 22.65 43.81 14.25 35.41 13 34.17 8.95 38.21 10.2 39.45 18.6 47.86" class="cls-1"/>
  <path id="svg_2" d="m41.79,58.6c-1.2,1.2 -3.15,1.2 -4.36,0l-7.62,-7.62l-4.05,4.05l7.62,7.63c3.43,3.43 9.02,3.43 12.45,0c3.17,-3.17 3.41,-8.17 0.73,-11.62l-4.14,4.14c0.5,1.13 0.29,2.51 -0.63,3.43l0,-0.01z" class="cls-1"/>
  <path id="svg_3" d="m6.62,23.43c1.2,-1.2 3.16,-1.2 4.36,0l5.6,5.6c3.43,3.43 9.02,3.43 12.45,0c3.17,-3.17 3.41,-8.17 0.73,-11.62l-4.14,4.14c0.5,1.13 0.29,2.51 -0.63,3.43c-1.2,1.2 -3.16,1.2 -4.36,0l-5.6,-5.6c-3.43,-3.43 -9.02,-3.43 -12.45,0c-3.17,3.17 -3.41,8.17 -0.73,11.62l4.14,-4.14c-0.5,-1.13 -0.3,-2.51 0.63,-3.43z" class="cls-1"/>
  <path id="svg_4" d="m58.59,41.79c-1.2,1.2 -3.16,1.2 -4.36,0l-5.6,-5.6c-3.43,-3.43 -9.02,-3.43 -12.45,0c-3.17,3.17 -3.41,8.17 -0.73,11.62l4.14,-4.14c-0.5,-1.13 -0.29,-2.51 0.63,-3.43c1.2,-1.2 3.15,-1.2 4.36,0l5.6,5.6c3.43,3.43 9.02,3.43 12.45,0c3.17,-3.17 3.41,-8.17 0.73,-11.62l-4.14,4.14c0.5,1.13 0.29,2.51 -0.63,3.43z" class="cls-1"/>
  <path id="svg_5" d="m23.43,6.62c1.2,-1.2 3.15,-1.2 4.36,0l7.63,7.62l4.04,-4.04l-7.62,-7.63c-3.43,-3.43 -9.02,-3.43 -12.45,0c-3.17,3.17 -3.41,8.17 -0.73,11.62l4.14,-4.14c-0.5,-1.13 -0.3,-2.51 0.63,-3.43z" class="cls-1"/>
  <polygon id="svg_6" points="52.21 31.05 56.26 27.01 47.86 18.6 46.61 17.36 42.57 21.4 43.81 22.65 52.21 31.05" class="cls-1"/>
  <path id="svg_7" d="m51.02,18.65l4.14,4.14c1.13,-0.5 2.51,-0.29 3.43,0.63c1.2,1.2 1.2,3.15 0,4.36l-7.62,7.63l4.04,4.04l7.62,-7.62c3.43,-3.43 3.43,-9.02 0,-12.45c-3.17,-3.17 -8.17,-3.41 -11.62,-0.73l0.01,0z" class="cls-1"/>
  <polygon id="svg_8" points="34.16 52.21 38.21 56.26 46.61 47.86 47.86 46.61 43.81 42.57 42.57 43.81 34.16 52.21" class="cls-1"/>
  <path id="svg_9" d="m23.43,54.24l5.6,-5.6c3.43,-3.43 3.43,-9.02 0,-12.45c-3.17,-3.17 -8.17,-3.41 -11.62,-0.73l4.14,4.14c1.13,-0.5 2.51,-0.29 3.43,0.63c1.2,1.2 1.2,3.16 0,4.36l-5.6,5.6c-3.43,3.43 -3.43,9.02 0,12.45c3.17,3.17 8.17,3.41 11.62,0.73l-4.14,-4.14c-1.13,0.5 -2.51,0.29 -3.43,-0.63c-1.2,-1.2 -1.2,-3.16 0,-4.36z" class="cls-1"/>
  <path id="svg_10" d="m41.79,10.98l-5.6,5.6c-3.43,3.43 -3.43,9.02 0,12.45c3.17,3.17 8.17,3.41 11.62,0.73l-4.14,-4.14c-1.13,0.5 -2.51,0.29 -3.43,-0.63c-1.2,-1.2 -1.2,-3.15 0,-4.36l5.6,-5.6c3.43,-3.43 3.43,-9.02 0,-12.45c-3.17,-3.17 -8.17,-3.41 -11.62,-0.73l4.14,4.14c1.13,-0.5 2.51,-0.29 3.43,0.63c1.2,1.2 1.2,3.16 0,4.36z" class="cls-1"/>
  <path id="svg_11" d="m14.2,46.56l-4.14,-4.14c-1.13,0.5 -2.51,0.29 -3.43,-0.63c-1.2,-1.2 -1.2,-3.15 0,-4.36l7.62,-7.62l-4.05,-4.05l-7.63,7.62c-3.43,3.43 -3.43,9.02 0,12.45c3.17,3.17 8.17,3.41 11.62,0.73l0.01,0z" class="cls-1"/>
  <polygon id="svg_12" points="31.05 13 27.01 8.95 25.76 10.2 17.36 18.6 21.4 22.65 29.81 14.25 31.05 13" class="cls-1"/>
 </g>
</svg>
